<svg xmlns="http://www.w3.org/2000/svg" viewBox="0 0 800 791" shape-rendering="geometricPrecision" image-rendering="optimizeQuality" fill-rule="evenodd" clip-rule="evenodd"><path fill="#fff" d="m0 0h800v791h-800z"/><path d="m100 242v2c3 0 8-6 13-9 2-1 11-6 13-8 6-2 13 0 15-6 1-3 1-7 1-10 1-5 3-11 4-16 1-3 1-7 2-9 4-10 6-13 12-20 3-3 3-2 6-4 7-4 5-4 2-13 5-2 10-1 16 0 3 1 15 3 17 2-1-5-2-9-4-14-3-8-3-9-8-16-2-2-3-2-6-3-2-2-7-7-11-5 0 2 1 1 4 4 2 2 4 5 5 8 6 10 10 10 14 22-2 0-2 0-3-2-4-6-8-10-13-15-1-1-3-2-4-4-4-6-4-11-11-13-9-2-18 2-24 8-5 6-10 12-13 20-2 8-4 18-4 28 1 9-1 20-5 27-4 9-16 44-18 46"/><path d="m190 227l1 2h-2c-2 0-18 3-25 3-3 1-2 1-3 4-1 5-3 5 1 11 0 1 2 4 2 5l-3 4c0 1 1 3 2 4 3 4 10-1 17 3h9c2-1 6 0 9-1 2 0 4-1 7-1 11-2 7-2 12-8 2-2 4-1 7-2 5-1 16-7 19-9l11-8c3-2 3-2 2-6-1-3-1-5-2-8-1-6-5-26-6-31-1-5-3-10-4-14-2-6-5-9-8-12-2-2-3-3-7-3-5 1-17 6-23 5-1 0-5-2-6-3-2-1-4-2-7-3-5-1-11-2-16 0-3 1-11 5-13 6-2 2-8 8-9 10 2 1 4 4 6 4 2-1 2-3 3-4 3-4 8-7 12-10 4-2 6-3 11-3 4 0 9 0 12 3-5 2-15-2-21 3 0 2 1 2 1 3 3 0 5 0 6 3 2 6-6 8-6 1 0-3 0-1-3-6-3 1-9 6-10 7 1 2 6 6 8 7 4 2 8 2 12 3 6 0 8-2 12-4 3-1 3 1 9 5-1 4-6 1-15 2-4 0-12 2-13 4-1 3 2 7 3 10 2 5 1 7 2 9 0 1 0 0 0 1 2-2 2-3 4-6 1-2 3-3 5-4 11-7 16-3 16-9 0-1 0-3 1-4 1-4 2-4-1-7 0-1-3-5-3-6-1-2-1-7-1-9l9-1 1 2h-7l-1 2h8c0 2 0 2-1 2-4 1-6-2-6 3 2-1 4-1 6-1v2c-2 1-4-1-4 2h1c2 0 4 0 6 1 7 6 24 3 20-7 0-2-3-6-5-7-2-1-8-1-11 1 1 1 2 6 3 7 1 1 2 1 2 3 0 5-9 3-6-2 2-3 1-5 0-8l-3 1c1-4 12-8 19-2 3 2 3 4 4 10 0 6-4 6 3 15 3 5 2 5-3 14-2 4 1 13 3 15 1 2 3 2 2 5-1 1-3 1-4 2-2 1-4 3-5 3l-19 13c-1 1-2 2-3 4-1 1-3 3-5 3-1 0-2-4-3-5-2-2-3-4-4-5-2-2-8-10-8-12 1-2 4-3 5 1 1 2 1 3 3 7 1 2 3 5 4 6 3 3 5 1 6-1 2-2 14-7 19-12 1-1 4-3 3-6-1 0-4 0-6 0-10-1-7-1-18 0-3 0-10-1-12 0-3 1-1 2-5 2-3 0-4 0-3 2"/><path d="m150 219c0-3 0-2 2-2 6 0 7 0 13 1 3 0 5 0 8 1 2 0 11 2 13 0-3-1-6-3-10-4-13-4-22-13-28-14 0 4-1 7-2 11-3 15-2 14-11 17-11 4-9 3-18 9-4 2-10 8-13 12-5 7 31 15 42 3 9-10-5-22 16-25l20-4c1-1 1-1 1-2-6 0-10 0-17-1-3 0-5-1-8-1-2-1-6-1-8-1"/><path d="m202 154c-3 1-11-3-18-4 0 2 1 2 4 4l16 6-1-5 7-1v-9l3 6c3-1 5-2 8-3 4-1 8 0 11 0-4-10-2-7-9-15-3-5-7-11-12-13l-8-4c-13-6-8 0-20-5-2-1-7-3-10-3 2 4 10 6 12 7 3 2 8 6 10 9 2 2 6 9 6 12 1 4 2 14 1 18"/><path d="m150 198c4 2 13 8 18 10 8 5 9 5 17 9 1 0 2 1 3 0-1-1-1-1-4-2-4-2-6-2-10-5-3-2-4-2-5-6 0-2-1-9 0-10 0 0 6 5 7 6 4 4 3 9 5 9 1-1 1-2 0-4-1-2-3-8-5-10-2-3-12-10-16-12-1-1-5-4-6-1-2 2-4 12-4 16"/><path d="m193 222c0-1 0-2 1-3 1-1 2-1 3-2 1 0 2-3 3-4l2 6h3c0-4-2-8 0-11l1-1c0 2 2 9 2 11h4c-1-5-1-3-1-12 2 0 2 0 2 2l2 10h4c0-4-1-8-1-12l1 1c1 4 2 7 3 11h4v-6c2 2 2 4 7 7 1 0 2-1 3-2-1-1-6-8-7-9-3-3-7-8-10-8-4 0-8 0-11 0l-7 9c-3 4-5 6-9 8-4 1-4 5 1 5"/><path d="m216 187c1 1 3 0 5 2 1 1 0 4 0 6 2 1 6 5 7 7 2 0 3 2 4 3 1 1 2 2 4 2 2-5 2-3 4-9 1-5 4-6-2-8-5-2-7-2-12-2-5 0-5-4-10-1"/><path d="m261 228v-5c-1-1-2-10-3-12-1-4-1-7-2-11-4-12-9-30-15-41-2-4-2-4-7-7-2-1-7-2-11-2 0 4 0 2 2 5 1 1 2 3 4 1 0-1-1 0-2-3 3 0 3 2 4 3 2 3 2 2 4 4 2 1 2 2 4 3 7 7 6 11 10 23 3 9 6 23 8 32 1 4 2 8 3 11 0 0 0 0 0 0 1 0 1-1 1-1"/><path d="m190 106h-9-2c4 3 6 2 14 2 3 1 8 3 12 5 5 2 9 5 12 8 1 1 1 2 2 3 2 3 0 2 5 3 0-2-4-7-5-8-4-4-18-11-23-12-2-1-5-1-6-1"/><path d="m148 260c2 1 3 1 6 0 3 0 3-1 3-4 1-2 1-3 0-6-1-2-1-4-3-4-1 4 3 2-5 8-1 1-1 1-2 2 0 1 0 3 1 4"/><path d="m215 162l3-1c0-3-1-3 0-5 1-2 1-2 1-4-1 0-3 0-4 1-1 0-2 0-2 2 0 3 2 5 2 7"/><path d="m240 225c0 0-1-1-1-1-1-3 0-2 2-4 0 0-1-1-1-1-5-2-5 8 0 7v-1"/><path d="m101 91v-62h32v18h-20v7h13v11h-13v7h23v19h-35m34 0v-62h12l8 25 8-25h12v62h-12v-26l-7 26h-1l-8-26v26h-12m84-31c0 7-1 13-3 17-1 5-4 9-7 11-3 2-7 4-11 4-5 0-9-2-12-4-3-2-5-6-7-11-2-4-2-10-2-17 0-5 0-10 1-14 1-3 2-7 4-9 2-3 4-5 7-7 2-1 5-2 9-2 4 0 8 2 11 4 3 2 6 6 7 11 2 5 3 10 3 17m-29 0c0 4 0 8 1 11 1 2 3 4 7 4 2 0 4-1 5-2 1-2 2-4 2-6 1-2 1-4 1-7 0-4-1-7-2-10-1-3-3-5-6-5-6 0-8 5-8 15m64-31v18h-11v44h-12v-44h-12v-18h35m1 0h12v62h-12v-62m56 31c0 7-1 13-3 17-2 5-4 9-7 11-3 2-7 4-12 4-4 0-8-2-11-4-3-2-6-6-7-11-2-4-3-10-3-17 0-5 1-10 2-14 1-3 2-7 4-9 2-3 4-5 6-7 3-1 6-2 9-2 5 0 9 2 12 4 3 2 5 6 7 11 2 5 3 10 3 17m-30 0c0 4 1 8 2 11 1 2 3 4 6 4 3 0 5-1 6-2 1-2 2-4 2-6 0-2 0-4 1-7-1-4-1-7-2-10-1-3-3-5-7-5-5 0-8 5-8 15m31 31v-62h12l11 23v-23h12v62h-12l-11-24v24h-12m66-62h-20c-5 0-8 4-9 11 0 8 2 16 8 25 4 5 3 7-2 7h-8v19h20c5-2 8-7 8-14 0-8-3-16-8-24-3-4-2-6 2-6h9v-18m65 31c0 7-1 13-2 17-2 5-4 9-8 11-3 2-7 4-11 4-5 0-8-2-12-4-3-2-5-6-7-11-1-4-2-10-2-17 0-5 0-10 1-14 1-3 3-7 4-9 2-3 4-5 7-7 3-1 6-2 9-2 4 0 8 2 11 4 4 2 6 6 8 11 1 5 2 10 2 17m-29 0c0 4 0 8 2 11 1 2 3 4 6 4 2 0 4-1 5-2 1-2 2-4 2-6 1-2 1-4 1-7 0-4-1-7-2-10-1-3-3-5-6-5-5 0-8 5-8 15m31 31v-62h32v18h-20v7h13v11h-13v26h-12m54-62l13 62h20l13-62h-15l-8 47-8-47h-15m42 62l12-62h19l12 62h-14l-2-12h-11l-3 12h-13m21-48l-5 24h10l-5-24m21 48v-62h22c3 0 6 1 8 2 2 1 4 3 6 5 1 2 2 5 3 9 1 4 2 9 2 15 0 6-1 10-2 14-1 4-2 7-3 10-2 2-4 4-6 5-2 1-5 2-9 2h-21m13-47v31h7c1 0 2 0 3-2 1-1 2-2 3-4 0-2 1-5 1-9 0-4 0-8-1-10-1-1-1-3-2-4-1-1-3-2-4-2h-7m30 47v-62h31v18h-19v7h12v11h-12v7h22v19h-34m34 0v-62h24c3 0 6 2 8 4 2 2 3 5 4 9 1 5 1 9 0 12-1 3-2 6-3 8-2 2-4 3-7 4l3 6h11v19h-15l-11-21v21h-14m14-47v12h9c1 0 1-1 2-1 0-1 1-2 1-5-1-2-1-4-1-5-1 0-2-1-2-1h-9" fill="#2b2a29" fill-rule="nonzero"/><path d="m314 242v2c2 0 7-6 13-9 2-1 10-6 13-8 5-2 13 0 14-6 1-3 1-7 2-10 0-5 3-11 4-16 1-3 1-7 2-9 4-10 6-13 12-20 3-3 3-2 6-4 6-4 5-4 1-13 6-2 11-1 17 0 2 1 14 3 16 2 0-5-1-9-3-14-3-8-3-9-9-16-1-2-2-2-5-3-3-2-7-7-11-5 0 2 1 1 3 4 3 2 4 5 6 8 5 10 10 10 13 22-1 0-1 0-2-2-4-6-9-10-13-15-2-1-3-2-4-4-4-6-5-11-12-13-8-2-18 2-23 8-5 6-10 12-13 20-3 8-5 18-4 28 1 9-1 20-5 27-5 9-17 44-18 46"/><path d="m404 227l1 2h-2c-3 0-19 3-25 3-3 1-3 1-3 4-1 5-3 5 0 11 1 1 2 4 3 5l-3 4c0 1 1 3 2 4 3 4 9-1 16 3h10c2-1 6 0 8-1 3 0 5-1 8-1 10-2 7-2 12-8 2-2 4-1 7-2 4-1 15-7 19-9l11-8c3-2 2-2 2-6-1-3-1-5-2-8-1-6-5-26-6-31-2-5-3-10-5-14-2-6-4-9-7-12-2-2-3-3-7-3-5 1-18 6-23 5-2 0-5-2-6-3-3-1-4-2-7-3-5-1-11-2-17 0-2 1-10 5-12 6-2 2-9 8-9 10 1 1 4 4 6 4 1-1 2-3 3-4 3-4 7-7 12-10 3-2 5-3 11-3 4 0 9 0 11 3-5 2-14-2-21 3 1 2 2 2 2 3 3 0 5 0 6 3 1 6-7 8-7 1 0-3 1-1-2-6-3 1-9 6-10 7 0 2 5 6 8 7 4 2 7 2 12 3 5 0 8-2 12-4 3-1 3 1 9 5-2 4-7 1-15 2-4 0-12 2-13 4-1 3 1 7 2 10 3 5 2 7 2 9 1 1 1 0 1 1 1-2 1-3 4-6 1-2 3-3 5-4 11-7 15-3 16-9 0-1 0-3 0-4 1-4 3-4 0-7-1-1-4-5-4-6 0-2-1-7-1-9l10-1 1 2h-7l-1 2h7c0 2 1 2-1 2-4 1-5-2-6 3 3-1 5-1 7-1v2c-2 1-4-1-5 2h2c1 0 4 0 5 1 7 6 25 3 21-7-1-2-3-6-5-7-2-1-8-1-11 1 0 1 2 6 3 7 1 1 2 1 2 3 0 5-9 3-6-2 2-3 0-5 0-8l-3 1c1-4 11-8 18-2 3 2 4 4 4 10 0 6-3 6 4 15 3 5 1 5-3 14-2 4 0 13 3 15 1 2 2 2 2 5-1 1-3 1-5 2-1 1-3 3-5 3l-18 13c-2 1-2 2-4 4-1 1-2 3-4 3-1 0-3-4-4-5-1-2-2-4-4-5-1-2-7-10-8-12 2-2 5-3 6 1 1 2 1 3 3 7 1 2 2 5 4 6 2 3 4 1 6-1 2-2 13-7 18-12 2-1 5-3 4-6-2 0-4 0-6 0-10-1-8-1-18 0-3 0-10-1-13 0-2 1-1 2-5 2-2 0-4 0-2 2"/><path d="m364 219c-1-3 0-2 2-2 6 0 7 0 13 1 2 0 5 0 8 1 2 0 11 2 13 0-3-1-7-3-10-4-13-4-23-13-28-14-1 4-2 7-2 11-4 15-2 14-11 17-11 4-9 3-19 9-3 2-10 8-12 12-5 7 31 15 42 3 9-10-6-22 15-25l21-4c1-1 1-1 1-2-7 0-11 0-17-1-3 0-5-1-8-1-3-1-6-1-8-1"/><path d="m416 154c-4 1-11-3-18-4 0 2 0 2 4 4l15 6v-5l7-1v-9l3 6c2-1 5-2 8-3 4-1 7 0 11 0-4-10-2-7-9-15-4-5-8-11-12-13l-9-4c-13-6-8 0-19-5-3-1-8-3-10-3 2 4 10 6 11 7 3 2 9 6 11 9 1 2 5 9 6 12 1 4 1 14 1 18"/><path d="m363 198c5 2 13 8 19 10 8 5 9 5 17 9 1 0 2 1 2 0 0-1-1-1-3-2-5-2-6-2-11-5-2-2-3-2-4-6 0-2-1-9-1-10 1 0 7 5 8 6 4 4 3 9 5 9 1-1 0-2 0-4-1-2-4-8-5-10-2-3-13-10-17-12 0-1-4-4-6-1-2 2-3 12-4 16"/><path d="m407 222c0-1 0-2 1-3 0-1 2-1 2-2 2 0 3-3 4-4l1 6h3c1-4-2-8 0-11l1-1c1 2 3 9 3 11h4c-1-5-2-3-1-12 2 0 1 0 2 2l2 10h4c0-4-2-8-2-12l2 1c1 4 2 7 2 11h5v-6c2 2 1 4 6 7 2 0 2-1 3-2 0-1-6-8-7-9-2-3-6-8-9-8-4 0-8 0-11 0l-8 9c-2 4-4 6-9 8-4 1-3 5 2 5"/><path d="m429 187c2 1 4 0 5 2 1 1 1 4 1 6 1 1 5 5 7 7 1 0 2 2 4 3 1 1 2 2 4 2 2-5 2-3 3-9 2-5 4-6-2-8-5-2-6-2-11-2-5 0-5-4-11-1"/><path d="m474 228v-5c0-1-1-10-2-12-1-4-2-7-3-11-3-12-8-30-14-41-3-4-3-4-7-7-3-1-8-2-11-2 0 4 0 2 2 5 1 1 2 3 4 1-1-1-1 0-2-3 2 0 3 2 4 3 2 3 1 2 4 4 1 1 2 2 3 3 7 7 7 11 11 23 3 9 6 23 8 32 1 4 2 8 3 11 0 0 0 0 0 0v-1"/><path d="m404 106h-9-3c5 3 7 2 14 2 4 1 9 3 13 5 5 2 8 5 12 8 0 1 1 2 1 3 3 3 1 2 6 3-1-2-5-7-6-8-3-4-17-11-23-12-1-1-4-1-5-1"/><path d="m361 260c3 1 4 1 7 0 3 0 2-1 3-4 0-2 1-3 0-6-1-2-2-4-3-4-2 4 2 2-6 8 0 1-1 1-1 2 0 1 0 3 0 4"/><path d="m429 162l3-1c0-3-1-3 0-5 1-2 1-2 0-4-1 0-2 0-3 1-1 0-2 0-2 2-1 3 1 5 2 7"/><path d="m453 225c0 0 0-1 0-1-1-3 0-2 1-4 0 0 0-1-1-1-5-2-4 8 0 7v-1"/><path d="m526 242v2c2 0 7-6 13-9 2-1 10-6 13-8 5-2 13 0 14-6 1-3 1-7 2-10 0-5 3-11 4-16 0-3 1-7 2-9 4-10 5-13 12-20 3-3 3-2 6-4 6-4 5-4 1-13 5-2 11-1 16 0 3 1 15 3 17 2 0-5-1-9-3-14-3-8-4-9-9-16-1-2-2-2-5-3-3-2-7-7-11-5 0 2 1 1 3 4 2 2 4 5 6 8 5 10 10 10 13 22-1 0-1 0-2-2-4-6-9-10-13-15-2-1-3-2-4-4-4-6-5-11-12-13-9-2-18 2-23 8-5 6-10 12-13 20-3 8-5 18-4 28 1 9-1 20-5 27-5 9-17 44-18 46"/><path d="m616 227l1 2h-2c-3 0-19 3-25 3-3 1-3 1-3 4-1 5-3 5 0 11 1 1 2 4 3 5l-4 4c1 1 2 3 3 4 3 4 9-1 16 3h10c1-1 6 0 8-1 3 0 5-1 8-1 10-2 6-2 12-8 2-2 3-1 7-2 4-1 15-7 19-9l11-8c2-2 2-2 1-6 0-3-1-5-1-8-1-6-5-26-7-31-1-5-2-10-4-14-2-6-4-9-7-12-2-2-3-3-7-3-5 1-18 6-23 5-2 0-5-2-6-3-3-1-4-2-7-3-5-1-11-2-17 0-2 1-10 5-12 6-3 2-9 8-9 10 1 1 3 4 6 4 1-1 2-3 3-4 3-4 7-7 11-10 4-2 6-3 12-3 4 0 9 0 11 3-5 2-14-2-21 3 1 2 2 2 2 3 3 0 5 0 6 3 1 6-7 8-7 1 0-3 1-1-3-6-2 1-8 6-9 7 0 2 5 6 8 7 3 2 7 2 12 3 5 0 8-2 12-4 3-1 3 1 9 5-2 4-7 1-15 2-4 0-12 2-13 4-1 3 1 7 2 10 3 5 2 7 2 9 1 1 0 0 1 1 1-2 1-3 4-6 1-2 3-3 5-4 11-7 15-3 16-9 0-1 0-3 0-4 1-4 3-4 0-7-1-1-4-5-4-6 0-2-1-7-1-9l10-1v2h-7v2h7c0 2 0 2-1 2-4 1-5-2-6 3 2-1 4-1 7-1v2c-2 1-4-1-5 2h2c1 0 4 0 5 1 7 6 24 3 21-7-1-2-3-6-5-7-2-1-8-1-11 1 0 1 2 6 3 7 1 1 2 1 2 3 0 5-10 3-6-2 2-3 0-5 0-8l-3 1c1-4 11-8 18-2 3 2 4 4 4 10 0 6-3 6 3 15 4 5 2 5-2 14-3 4 0 13 2 15 2 2 3 2 3 5-1 1-3 1-5 2-1 1-3 3-5 3l-18 13c-2 1-3 2-4 4-1 1-2 3-4 3-1 0-3-4-4-5-1-2-3-4-4-5-1-2-7-10-8-12 2-2 5-3 6 1 1 2 1 3 3 7 1 2 2 5 4 6 2 3 4 1 6-1 2-2 13-7 18-12 2-1 5-3 4-6-2 0-4 0-6 0-10-1-8-1-18 0-3 0-10-1-13 0-2 1-1 2-5 2-3 0-4 0-2 2"/><path d="m575 219c0-3 1-2 3-2 6 0 7 0 12 1 3 0 6 0 9 1 2 0 11 2 13 0-4-1-7-3-10-4-13-4-23-13-28-14-1 4-2 7-3 11-3 15-1 14-10 17-11 4-9 3-19 9-4 2-10 8-12 12-5 7 31 15 42 3 9-10-6-22 15-25l21-4c1-1 1-1 1-2-7 0-11 0-17-1-3 0-6-1-8-1-3-1-6-1-9-1"/><path d="m628 154c-4 1-11-3-18-4 0 2 0 2 4 4l15 6v-5l7-1v-9l3 6c2-1 5-2 8-3 3-1 7 0 11 0-4-10-3-7-9-15-4-5-8-11-12-13l-9-4c-13-6-8 0-20-5-2-1-7-3-9-3 1 4 10 6 11 7 3 2 9 6 11 9 1 2 5 9 6 12 1 4 1 14 1 18"/><path d="m575 198c5 2 13 8 19 10 8 5 8 5 17 9 1 0 1 1 2 0 0-1-1-1-3-2-5-2-6-2-11-5-3-2-4-2-4-6 0-2-1-9-1-10 1 0 7 5 8 6 4 4 3 9 5 9 1-1 0-2 0-4-1-2-4-8-5-10-2-3-13-10-17-12-1-1-4-4-6-1-2 2-3 12-4 16"/><path d="m619 222c0-1 0-2 1-3 0-1 2-1 2-2 2 0 3-3 4-4l1 6h3c1-4-2-8 0-11l1-1c1 2 3 9 3 11h4c-1-5-2-3-2-12 2 0 2 0 3 2l2 10h3c0-4-1-8-1-12l2 1c1 4 2 7 2 11h4l1-6c2 2 1 4 6 7 1 0 2-1 3-2 0-1-6-8-7-9-2-3-6-8-9-8-4 0-8 0-12 0l-7 9c-2 4-5 6-9 8-4 1-3 5 2 5"/><path d="m641 187c2 1 3 0 5 2 1 1 1 4 1 6 1 1 5 5 7 7 1 0 2 2 3 3 2 1 3 2 5 2 2-5 1-3 3-9 2-5 4-6-2-8-5-2-6-2-12-2-4 0-4-4-10-1"/><path d="m686 228v-5c0-1-2-10-2-12-1-4-2-7-3-11-3-12-8-30-14-41-3-4-3-4-7-7-3-1-8-2-11-2 0 4 0 2 1 5 1 1 3 3 5 1-1-1-1 0-2-3 2 0 3 2 4 3 2 3 1 2 4 4 1 1 2 2 3 3 7 7 7 11 11 23 3 9 6 23 8 32 0 4 2 8 2 11h1c0 0 0 0 0 0v-1"/><path d="m615 106h-8-3c5 3 7 2 14 2 4 1 9 3 13 5 5 2 8 5 11 8 1 1 1 2 2 3 3 3 1 2 6 3-1-2-5-7-6-8-3-4-18-11-23-12-1-1-4-1-6-1"/><path d="m573 260c2 1 4 1 7 0 2 0 2-1 3-4 0-2 1-3 0-6-1-2-2-4-3-4-2 4 2 2-6 8-1 1-1 1-1 2 0 1 0 3 0 4"/><path d="m641 162l3-1c0-3-1-3 0-5 1-2 1-2 0-4-1 0-2 0-3 1-1 0-2 0-2 2-1 3 1 5 2 7"/><path d="m665 225c0 0 0-1 0-1-1-3 0-2 1-4 0 0 0-1-1-1-5-2-4 8 0 7v-1"/><g fill="#2b2a29" fill-rule="nonzero"><path d="m123 308l9-25h12l9 25h-10l-2-5h-7l-2 5h-9m15-20l-4 10h7l-3-10m14 20v-25h9l7 9v-9h9v25h-9l-7-9v9h-9m43-8v-5h8v13h-12c-2 0-5 0-7-1-2-1-4-3-5-5-2-2-2-4-2-7 0-2 0-4 1-5 1-2 2-3 3-4 1-1 3-2 5-3 2 0 3 0 5 0h7 5v7h-8c-2 0-3 0-4 0-1 0-2 1-2 1-1 0-2 1-2 1-1 1-1 2-1 3 0 2 0 3 1 4 0 0 1 1 2 1 1 0 1 0 2 0 1 0 2 0 4 0m9 8v-25h16c3 0 4 0 6 1 1 1 2 2 2 4 1 2 1 4 0 5 0 1-1 2-2 3-1 1-2 2-4 2l2 2h7v8h-10l-8-8v8h-9m9-19v5h7c0 0 0-1 1-1 0 0 0-1 0-2 0-1 0-1 0-2-1 0-1 0-1 0h-7m45-6l-11 16v9h-8v-9l-11-16h10l5 7 5-7h10"/><path d="m357 291v-9h8v25h-8v-9h-7v9h-8v-25h8v9h7m8 16l8-25h13l8 25h-9l-2-4h-8l-1 4h-9m14-20l-3 11h7l-4-11m15 20v-25h17c2 0 3 1 5 1 1 1 2 2 3 4 0 2 0 3 0 4 0 1 0 2 0 3-1 1-1 2-3 3-1 1-3 2-5 2h-8v8h-9m9-19v5h7c0 0 0 0 1-1 0 0 0 0 0-1 0-1 0-2 0-2-1-1-1-1-1-1h-7m17 19v-25h17c2 0 4 1 5 1 2 1 2 2 3 4 1 2 1 3 1 4 0 1-1 2-1 3 0 1-1 2-2 3-2 1-3 2-5 2h-8v8h-10m10-19v5h6c0 0 1 0 1-1 1 0 1 0 1-1 0-1 0-2-1-2 0-1-1-1-1-1h-6m44-6l-11 16v9h-8v-9l-11-16h10l5 8 5-8h10"/><path d="m593 282h-14c-3 0-5 1-6 5-1 3 1 6 5 10 3 2 2 3-1 3h-5v7h13c4 0 6-2 6-5 0-4-2-7-6-10-2-2-1-3 2-3h6v-7m-3 25l9-25h12l9 25h-10l-1-4h-8l-2 4h-9m15-20l-4 11h7l-3-11m15 20v-25h15c2 0 3 0 5 1 2 0 3 1 4 2 1 1 2 2 3 4 0 1 1 3 1 6 0 2-1 4-1 6-1 1-2 2-3 3-1 1-2 2-4 3-2 0-3 0-6 0h-14m8-19v13h5c1 0 2 0 3-1 0 0 1-1 1-2 1 0 1-2 1-3 0-2 0-3-1-4 0-1-1-2-1-2-1-1-2-1-3-1h-5"/></g><path d="m100 460v1c3 0 8-6 13-9 2-1 11-6 13-8 6-2 13 0 15-6 1-3 1-6 1-10 1-5 3-11 4-16 1-3 1-7 2-9 4-10 6-13 12-20 3-3 3-2 6-4 7-4 5-4 2-13 5-2 10-1 16 0 3 1 15 3 17 2-1-5-2-9-4-13-3-9-3-10-8-17-2-2-3-2-6-3-2-2-7-7-11-5 0 2 1 1 4 4 2 2 4 5 5 8 6 10 10 10 14 22-2 0-2 0-3-1-4-7-8-11-13-16-1-1-3-2-4-4-4-6-4-11-11-13-9-2-18 2-24 8-5 6-10 12-13 20-2 8-4 19-4 28 1 9-1 20-5 27-4 9-16 44-18 47"/><path d="m190 444l1 2h-2c-2 0-18 3-25 3-3 1-2 1-3 4-1 5-3 5 1 11 0 1 2 4 2 5l-3 4c0 1 1 3 2 4 3 4 10-1 17 3h9c2-1 6 0 9-1 2 0 4-1 7-1 11-2 7-2 12-8 2-2 4-1 7-2 5-1 16-6 19-9l11-8c3-2 3-2 2-6-1-3-1-5-2-8-1-6-5-26-6-31-1-5-3-10-4-14-2-6-5-9-8-12-2-1-3-3-7-2-5 0-17 5-23 4-1 0-5-2-6-3-2-1-4-2-7-3-5-1-11-2-16 0-3 1-11 5-13 6-2 2-8 8-9 11 2 0 4 3 6 3 2-1 2-3 3-4 3-4 8-7 12-10 4-2 6-3 11-3 4 0 9 1 12 3-5 3-15-2-21 3 0 2 1 2 1 3 3 1 5 1 6 3 2 6-6 8-6 1 0-3 0-1-3-6-3 1-9 6-10 7 1 2 6 6 8 7 4 2 8 2 12 3 6 0 8-2 12-4 3-1 3 1 9 5-1 4-6 1-15 2-4 0-12 2-13 4-1 3 2 7 3 10 2 5 1 7 2 9 0 1 0 0 0 1 2-1 2-3 4-6 1-2 3-3 5-4 11-7 16-2 16-9 0-1 0-2 1-4 1-4 2-4-1-7 0-1-3-4-3-6-1-2-1-7-1-9l9-1 1 2h-7l-1 2h8c0 2 0 2-1 2-4 1-6-2-6 3 2 0 4-1 6-1v2c-2 1-4 0-4 2h1c2 0 4 0 6 1 7 6 24 3 20-7 0-2-3-5-5-7-2-1-8-1-11 1 1 1 2 6 3 7 1 1 2 1 2 3 0 5-9 3-6-2 2-3 1-5 0-8l-3 1c1-4 12-8 19-2 3 2 3 4 4 10 0 6-4 6 3 15 3 5 2 5-3 14-2 4 1 13 3 15 1 2 3 3 2 5-1 1-3 2-4 2-2 2-4 3-5 3l-19 13c-1 1-2 2-3 4-1 1-3 3-5 3-1 0-2-4-3-5-2-2-3-4-4-5-2-2-8-10-8-12 1-2 4-3 5 1 1 2 1 3 3 7 1 2 3 5 4 6 3 3 5 1 6-1 2-2 14-7 19-12 1-1 4-3 3-6-1 0-4 0-6 0-10-1-7-1-18 0-3 0-10-1-12 0-3 1-1 2-5 2-3 0-4 0-3 2"/><path d="m150 436c0-3 0-2 2-2 6 0 7 0 13 1 3 0 5 0 8 1 2 0 11 2 13 0-3-1-6-3-10-4-13-4-22-13-28-14 0 4-1 7-2 11-3 15-2 14-11 17-11 4-9 3-18 9-4 2-10 8-13 12-5 7 31 15 42 3 9-10-5-21 16-25l20-4c1-1 1-1 1-2-6 0-10 0-17-1-3 0-5-1-8-1-2 0-6 0-8-1"/><path d="m202 371c-3 1-11-3-18-3 0 1 1 1 4 3l16 6-1-5 7-1v-8l3 5c3-1 5-2 8-3 4-1 8 0 11 0-4-9-2-7-9-15-3-5-7-11-12-13l-8-4c-13-6-8 0-20-5-2-1-7-3-10-3 2 4 10 6 12 7 3 2 8 6 10 9 2 2 6 9 6 12 1 4 2 14 1 18"/><path d="m150 415c4 2 13 8 18 11 8 4 9 4 17 8 1 0 2 1 3 0-1-1-1 0-4-2-4-1-6-2-10-5-3-2-4-2-5-6 0-2-1-9 0-10 0 0 6 5 7 6 4 5 3 9 5 9 1-1 1-2 0-4-1-2-3-8-5-10-2-3-12-9-16-12-1-1-5-4-6-1-2 2-4 12-4 16"/><path d="m193 439c0-1 0-2 1-3 1-1 2-1 3-1 1-1 2-3 3-5l2 6h3c0-4-2-8 0-11l1-1c0 2 2 9 2 11h4c-1-5-1-3-1-12 2 0 2 0 2 2l2 10h4c0-4-1-8-1-11h1c1 4 2 7 3 11h4v-6c2 2 2 4 7 7 1 0 2-1 3-2-1-1-6-8-7-9-3-3-7-8-10-8-4 0-8 0-11 0l-7 9c-3 4-5 6-9 8-4 1-4 5 1 5"/><path d="m216 404c1 1 3 0 5 2 1 1 0 4 0 6 2 1 6 5 7 7 2 1 3 2 4 3 1 1 2 2 4 3 2-6 2-4 4-10 1-5 4-6-2-8-5-2-7-2-12-2-5 0-5-4-10-1"/><path d="m261 445v-5c-1-1-2-9-3-12-1-3-1-7-2-11-4-12-9-30-15-40-2-5-2-5-7-8-2-1-7-2-11-2 0 4 0 3 2 5 1 1 2 3 4 2 0-2-1-1-2-3 3 0 3 1 4 2 2 3 2 2 4 4 2 1 2 2 4 3 7 7 6 11 10 23 3 9 6 23 8 33 1 3 2 7 3 11v-1c0 0 0 0 0 0 1 0 1-1 1-1"/><path d="m190 323h-9-2c4 3 6 2 14 3 3 0 8 3 12 4 5 2 9 5 12 9 1 0 1 1 2 2 2 3 0 3 5 3 0-2-4-7-5-8-4-4-18-11-23-12-2-1-5-1-6-1"/><path d="m148 477c2 1 3 1 6 1 3-1 3-2 3-4 1-3 1-4 0-6-1-3-1-5-3-5-1 4 3 2-5 8-1 1-1 1-2 2 0 1 0 3 1 4"/><path d="m215 379l3-1c0-3-1-3 0-5 1-2 1-2 1-4-1 0-3 0-4 1-1 0-2 1-2 2 0 3 2 5 2 7"/><path d="m240 442c0 0-1-1-1-1-1-3 0-2 2-4 0 0-1 0-1-1-5-2-5 8 0 7v-1"/><path d="m314 460v1c2 0 7-6 13-9 2-1 10-6 13-8 5-2 13 0 14-6 1-3 1-6 2-10 0-5 3-11 4-16 1-3 1-7 2-9 4-10 6-13 12-20 3-3 3-2 6-4 6-4 5-4 1-13 6-2 11-1 17 0 2 1 14 3 16 2 0-5-1-9-3-13-3-9-3-10-9-17-1-2-2-2-5-3-3-2-7-7-11-5 0 2 1 1 3 4 3 2 4 5 6 8 5 10 10 10 13 22-1 0-1 0-2-1-4-7-9-11-13-16-2-1-3-2-4-4-4-6-5-11-12-13-8-2-18 2-23 8-5 6-10 12-13 20-3 8-5 19-4 28 1 9-1 20-5 27-5 9-17 44-18 47"/><path d="m404 444l1 2h-2c-3 0-19 3-25 3-3 1-3 1-3 4-1 5-3 5 0 11 1 1 2 4 3 5l-3 4c0 1 1 3 2 4 3 4 9-1 16 3h10c2-1 6 0 8-1 3 0 5-1 8-1 10-2 7-2 12-8 2-2 4-1 7-2 4-1 15-6 19-9l11-8c3-2 2-2 2-6-1-3-1-5-2-8-1-6-5-26-6-31-2-5-3-10-5-14-2-6-4-9-7-12-2-1-3-3-7-2-5 0-18 5-23 4-2 0-5-2-6-3-3-1-4-2-7-3-5-1-11-2-17 0-2 1-10 5-12 6-2 2-9 8-9 11 1 0 4 3 6 3 1-1 2-3 3-4 3-4 7-7 12-10 3-2 5-3 11-3 4 0 9 1 11 3-5 3-14-2-21 3 1 2 2 2 2 3 3 1 5 1 6 3 1 6-7 8-7 1 0-3 1-1-2-6-3 1-9 6-10 7 0 2 5 6 8 7 4 2 7 2 12 3 5 0 8-2 12-4 3-1 3 1 9 5-2 4-7 1-15 2-4 0-12 2-13 4-1 3 1 7 2 10 3 5 2 7 2 9 1 1 1 0 1 1 1-1 1-3 4-6 1-2 3-3 5-4 11-7 15-2 16-9 0-1 0-2 0-4 1-4 3-4 0-7-1-1-4-4-4-6 0-2-1-7-1-9l10-1 1 2h-7l-1 2h7c0 2 1 2-1 2-4 1-5-2-6 3 3 0 5-1 7-1v2c-2 1-4 0-5 2h2c1 0 4 0 5 1 7 6 25 3 21-7-1-2-3-5-5-7-2-1-8-1-11 1 0 1 2 6 3 7 1 1 2 1 2 3 0 5-9 3-6-2 2-3 0-5 0-8l-3 1c1-4 11-8 18-2 3 2 4 4 4 10 0 6-3 6 4 15 3 5 1 5-3 14-2 4 0 13 3 15 1 2 2 3 2 5-1 1-3 2-5 2-1 2-3 3-5 3l-18 13c-2 1-2 2-4 4-1 1-2 3-4 3-1 0-3-4-4-5-1-2-2-4-4-5-1-2-7-10-8-12 2-2 5-3 6 1 1 2 1 3 3 7 1 2 2 5 4 6 2 3 4 1 6-1 2-2 13-7 18-12 2-1 5-3 4-6-2 0-4 0-6 0-10-1-8-1-18 0-3 0-10-1-13 0-2 1-1 2-5 2-2 0-4 0-2 2"/><path d="m364 436c-1-3 0-2 2-2 6 0 7 0 13 1 2 0 5 0 8 1 2 0 11 2 13 0-3-1-7-3-10-4-13-4-23-13-28-14-1 4-2 7-2 11-4 15-2 14-11 17-11 4-9 3-19 9-3 2-10 8-12 12-5 7 31 15 42 3 9-10-6-21 15-25l21-4c1-1 1-1 1-2-7 0-11 0-17-1-3 0-5-1-8-1-3 0-6 0-8-1"/><path d="m416 371c-4 1-11-3-18-3 0 1 0 1 4 3l15 6v-5l7-1v-8l3 5c2-1 5-2 8-3 4-1 7 0 11 0-4-9-2-7-9-15-4-5-8-11-12-13l-9-4c-13-6-8 0-19-5-3-1-8-3-10-3 2 4 10 6 11 7 3 2 9 6 11 9 1 2 5 9 6 12 1 4 1 14 1 18"/><path d="m363 415c5 2 13 8 19 11 8 4 9 4 17 8 1 0 2 1 2 0 0-1-1 0-3-2-5-1-6-2-11-5-2-2-3-2-4-6 0-2-1-9-1-10 1 0 7 5 8 6 4 5 3 9 5 9 1-1 0-2 0-4-1-2-4-8-5-10-2-3-13-9-17-12 0-1-4-4-6-1-2 2-3 12-4 16"/><path d="m407 439c0-1 0-2 1-3 0-1 2-1 2-1 2-1 3-3 4-5l1 6h3c1-4-2-8 0-11l1-1c1 2 3 9 3 11h4c-1-5-2-3-1-12 2 0 1 0 2 2l2 10h4c0-4-2-8-2-11h2c1 4 2 7 2 11h5v-6c2 2 1 4 6 7 2 0 2-1 3-2 0-1-6-8-7-9-2-3-6-8-9-8-4 0-8 0-11 0l-8 9c-2 4-4 6-9 8-4 1-3 5 2 5"/><path d="m429 404c2 1 4 0 5 2 1 1 1 4 1 6 1 1 5 5 7 7 1 1 2 2 4 3 1 1 2 2 4 3 2-6 2-4 3-10 2-5 4-6-2-8-5-2-6-2-11-2-5 0-5-4-11-1"/><path d="m474 445v-5c0-1-1-9-2-12-1-3-2-7-3-11-3-12-8-30-14-40-3-5-3-5-7-8-3-1-8-2-11-2 0 4 0 3 2 5 1 1 2 3 4 2-1-2-1-1-2-3 2 0 3 1 4 2 2 3 1 2 4 4 1 1 2 2 3 3 7 7 7 11 11 23 3 9 6 23 8 33 1 3 2 7 3 11v-1c0 0 0 0 0 0v-1"/><path d="m404 323h-9-3c5 3 7 2 14 3 4 0 9 3 13 4 5 2 8 5 12 9 0 0 1 1 1 2 3 3 1 3 6 3-1-2-5-7-6-8-3-4-17-11-23-12-1-1-4-1-5-1"/><path d="m361 477c3 1 4 1 7 1 3-1 2-2 3-4 0-3 1-4 0-6-1-3-2-5-3-5-2 4 2 2-6 8 0 1-1 1-1 2 0 1 0 3 0 4"/><path d="m429 379l3-1c0-3-1-3 0-5 1-2 1-2 0-4-1 0-2 0-3 1-1 0-2 1-2 2-1 3 1 5 2 7"/><path d="m453 442c0 0 0-1 0-1-1-3 0-2 1-4 0 0 0 0-1-1-5-2-4 8 0 7v-1"/><path d="m526 460v1c2 0 7-6 13-9 2-1 10-6 13-8 5-2 13 0 14-6 1-3 1-6 2-10 0-5 3-11 4-16 0-3 1-7 2-9 4-10 5-13 12-20 3-3 3-2 6-4 6-4 5-4 1-13 5-2 11-1 16 0 3 1 15 3 17 2 0-5-1-9-3-13-3-9-4-10-9-17-1-2-2-2-5-3-3-2-7-7-11-5 0 2 1 1 3 4 2 2 4 5 6 8 5 10 10 10 13 22-1 0-1 0-2-1-4-7-9-11-13-16-2-1-3-2-4-4-4-6-5-11-12-13-9-2-18 2-23 8-5 6-10 12-13 20-3 8-5 19-4 28 1 9-1 20-5 27-5 9-17 44-18 47"/><path d="m616 444l1 2h-2c-3 0-19 3-25 3-3 1-3 1-3 4-1 5-3 5 0 11 1 1 2 4 3 5l-4 4c1 1 2 3 3 4 3 4 9-1 16 3h10c1-1 6 0 8-1 3 0 5-1 8-1 10-2 6-2 12-8 2-2 3-1 7-2 4-1 15-6 19-9l11-8c2-2 2-2 1-6 0-3-1-5-1-8-1-6-5-26-7-31-1-5-2-10-4-14-2-6-4-9-7-12-2-1-3-3-7-2-5 0-18 5-23 4-2 0-5-2-6-3-3-1-4-2-7-3-5-1-11-2-17 0-2 1-10 5-12 6-3 2-9 8-9 11 1 0 3 3 6 3 1-1 2-3 3-4 3-4 7-7 11-10 4-2 6-3 12-3 4 0 9 1 11 3-5 3-14-2-21 3 1 2 2 2 2 3 3 1 5 1 6 3 1 6-7 8-7 1 0-3 1-1-3-6-2 1-8 6-9 7 0 2 5 6 8 7 3 2 7 2 12 3 5 0 8-2 12-4 3-1 3 1 9 5-2 4-7 1-15 2-4 0-12 2-13 4-1 3 1 7 2 10 3 5 2 7 2 9 1 1 0 0 1 1 1-1 1-3 4-6 1-2 3-3 5-4 11-7 15-2 16-9 0-1 0-2 0-4 1-4 3-4 0-7-1-1-4-4-4-6 0-2-1-7-1-9l10-1v2h-7v2h7c0 2 0 2-1 2-4 1-5-2-6 3 2 0 4-1 7-1v2c-2 1-4 0-5 2h2c1 0 4 0 5 1 7 6 24 3 21-7-1-2-3-5-5-7-2-1-8-1-11 1 0 1 2 6 3 7 1 1 2 1 2 3 0 5-10 3-6-2 2-3 0-5 0-8l-3 1c1-4 11-8 18-2 3 2 4 4 4 10 0 6-3 6 3 15 4 5 2 5-2 14-3 4 0 13 2 15 2 2 3 3 3 5-1 1-3 2-5 2-1 2-3 3-5 3l-18 13c-2 1-3 2-4 4-1 1-2 3-4 3-1 0-3-4-4-5-1-2-3-4-4-5-1-2-7-10-8-12 2-2 5-3 6 1 1 2 1 3 3 7 1 2 2 5 4 6 2 3 4 1 6-1 2-2 13-7 18-12 2-1 5-3 4-6-2 0-4 0-6 0-10-1-8-1-18 0-3 0-10-1-13 0-2 1-1 2-5 2-3 0-4 0-2 2"/><path d="m575 436c0-3 1-2 3-2 6 0 7 0 12 1 3 0 6 0 9 1 2 0 11 2 13 0-4-1-7-3-10-4-13-4-23-13-28-14-1 4-2 7-3 11-3 15-1 14-10 17-11 4-9 3-19 9-4 2-10 8-12 12-5 7 31 15 42 3 9-10-6-21 15-25l21-4c1-1 1-1 1-2-7 0-11 0-17-1-3 0-6-1-8-1-3 0-6 0-9-1"/><path d="m628 371c-4 1-11-3-18-3 0 1 0 1 4 3l15 6v-5l7-1v-8l3 5c2-1 5-2 8-3 3-1 7 0 11 0-4-9-3-7-9-15-4-5-8-11-12-13l-9-4c-13-6-8 0-20-5-2-1-7-3-9-3 1 4 10 6 11 7 3 2 9 6 11 9 1 2 5 9 6 12 1 4 1 14 1 18"/><path d="m575 415c5 2 13 8 19 11 8 4 8 4 17 8 1 0 1 1 2 0 0-1-1 0-3-2-5-1-6-2-11-5-3-2-4-2-4-6 0-2-1-9-1-10 1 0 7 5 8 6 4 5 3 9 5 9 1-1 0-2 0-4-1-2-4-8-5-10-2-3-13-9-17-12-1-1-4-4-6-1-2 2-3 12-4 16"/><path d="m619 439c0-1 0-2 1-3 0-1 2-1 2-1 2-1 3-3 4-5l1 6h3c1-4-2-8 0-11l1-1c1 2 3 9 3 11h4c-1-5-2-3-2-12 2 0 2 0 3 2l2 10h3c0-4-1-8-1-11h2c1 4 2 7 2 11h4l1-6c2 2 1 4 6 7 1 0 2-1 3-2 0-1-6-8-7-9-2-3-6-8-9-8-4 0-8 0-12 0l-7 9c-2 4-5 6-9 8-4 1-3 5 2 5"/><path d="m641 404c2 1 3 0 5 2 1 1 1 4 1 6 1 1 5 5 7 7 1 1 2 2 3 3 2 1 3 2 5 3 2-6 1-4 3-10 2-5 4-6-2-8-5-2-6-2-12-2-4 0-4-4-10-1"/><path d="m686 445v-5c0-1-2-9-2-12-1-3-2-7-3-11-3-12-8-30-14-40-3-5-3-5-7-8-3-1-8-2-11-2 0 4 0 3 1 5 1 1 3 3 5 2-1-2-1-1-2-3 2 0 3 1 4 2 2 3 1 2 4 4 1 1 2 2 3 3 7 7 7 11 11 23 3 9 6 23 8 33 0 3 2 7 2 11l1-1c0 0 0 0 0 0v-1"/><path d="m615 323h-8-3c5 3 7 2 14 3 4 0 9 3 13 4 5 2 8 5 11 9 1 0 1 1 2 2 3 3 1 3 6 3-1-2-5-7-6-8-3-4-18-11-23-12-1-1-4-1-6-1"/><path d="m573 477c2 1 4 1 7 1 2-1 2-2 3-4 0-3 1-4 0-6-1-3-2-5-3-5-2 4 2 2-6 8-1 1-1 1-1 2 0 1 0 3 0 4"/><path d="m641 379l3-1c0-3-1-3 0-5 1-2 1-2 0-4-1 0-2 0-3 1-1 0-2 1-2 2-1 3 1 5 2 7"/><path d="m665 442c0 0 0-1 0-1-1-3 0-2 1-4 0 0 0 0-1-1-5-2-4 8 0 7v-1"/><g fill="#2b2a29" fill-rule="nonzero"><path d="m133 500h-14c-4 0-6 1-6 4-1 4 1 7 5 11 3 2 2 3-1 3h-6v7h14c4 0 6-2 6-6 0-3-2-6-6-9-2-2-2-3 1-3h7v-7m-1 25v-25h9v18h14v7h-23m24 0v-25h22v7h-14v3h9v5h-9v3h16v7h-24m24 0v-25h22v7h-14v3h9v5h-9v3h16v7h-24m24 0v-25h16c2 0 4 0 5 1 2 1 3 2 3 4 1 2 1 3 1 4 0 1 0 2-1 3 0 1-1 2-2 3-1 1-3 1-5 2h-8v8h-9m9-19v5h6c1 0 1 0 1-1 1 0 1-1 1-2 0-1 0-1-1-2 0 0 0 0-1 0h-6m44-6l-11 16v9h-8v-9l-11-16h10l5 8 5-8h10"/><path d="m319 517h8v7h-11c-3 0-6 0-8-1-2-1-4-3-5-5-1-1-2-4-2-7 0-2 0-4 1-5 1-2 2-3 3-4 2-1 3-2 5-2 2-1 4-1 6-1h7 4v7h-8c-2 0-3 1-4 1-1 0-2 0-2 0-1 0-1 1-2 1-1 1-1 2-1 4 0 1 0 2 1 3 1 1 1 1 2 1 1 0 2 1 2 1 1 0 2 0 4 0m38-5c0 3-1 5-2 7-1 2-3 3-5 4-2 1-5 2-8 2-3 0-6-1-8-2-2-1-4-2-5-4-1-2-2-4-2-7 0-2 1-4 1-6 1-1 2-3 3-4 1-1 3-2 5-2 1-1 4-1 6-1 3 0 5 0 8 1 2 1 4 3 5 5 1 2 2 4 2 7m-21 0c0 1 1 3 1 4 1 1 3 2 5 2 1 0 3 0 4-1 0-1 1-1 1-2 0-1 0-2 0-3 0-2 0-3-1-4 0-2-2-2-4-2-4 0-6 2-6 6m22 12v-25h8l8 9v-9h8v25h-8l-8-9v9h-8m25 0v-25h22v7h-14v3h9v5h-9v10h-8m31-25v15c0 2 0 3 1 4 1 0 2 1 3 1 2 0 3-1 3-1 1-1 2-2 2-4v-15h8v15c0 2 0 4-1 5-1 1-2 2-3 3-1 1-2 2-3 2-2 1-4 1-6 1-1 0-3 0-4-1-2 0-3-1-5-2-1-1-2-2-2-3-1-1-1-3-1-5v-15h8m38 0h-14c-3 0-5 1-6 5 0 3 2 6 6 10 2 2 2 3-2 3h-5v7h14c3 0 5-2 5-5 0-3-2-7-5-10-2-2-2-3 1-3h6v-7m0 25v-25h22v7h-13v3h8v5h-8v3h15v7h-24m24 0v-25h15c2 0 4 0 6 1 1 0 3 1 4 2 1 1 2 2 2 4 1 1 1 3 1 6 0 2 0 4-1 6 0 1-1 3-2 3-1 1-3 2-4 3-2 0-4 0-6 0h-15m9-19v13h5c1 0 2 0 2-1 1 0 1-1 2-1 0-1 1-3 1-4 0-2-1-3-1-4 0-1-1-2-2-2 0-1-1-1-2-1h-5"/><path d="m532 524v-25h22v7h-14v3h9v5h-9v3h16v7h-24m51-25l-9 13 9 12h-10l-5-8-5 8h-10l9-12-9-13h10l5 8 5-8h10m16 18h8v7h-11c-3 0-5 0-8-1-2-1-4-3-5-5-1-1-2-4-2-7 0-2 1-4 1-5 1-2 2-3 4-4 1-1 2-2 4-2 2-1 4-1 6-1h7 4v7h-8c-2 0-3 1-4 1-1 0-1 0-2 0-1 0-1 1-2 1 0 1-1 2-1 4 0 1 1 2 1 3 1 1 1 1 2 1 1 0 2 1 3 1 0 0 2 0 3 0m9-18h8v25h-8v-25m33 0v7h-8v18h-8v-18h-8v-7h24m1 25v-25h22v7h-14v3h9v5h-9v3h16v7h-24m24 0v-25h15c2 0 4 0 6 1 1 0 2 1 4 2 1 1 2 2 2 4 1 1 1 3 1 6 0 2 0 4-1 6-1 1-1 3-2 3-2 1-3 2-4 3-2 0-4 0-6 0h-15m9-19v13h5c1 0 2 0 2-1 1 0 1-1 2-1 0-1 1-3 1-4 0-2-1-3-1-4-1-1-1-2-2-2 0-1-1-1-2-1h-5"/></g><path d="m100 702v1c3 0 8-5 13-8 2-2 11-7 13-8 6-3 13-1 15-7 1-3 1-6 1-9 1-5 3-12 4-17 1-3 1-6 2-9 4-10 6-13 12-20 3-3 3-2 6-4 7-4 5-3 2-13 5-1 10-1 16 1 3 0 15 2 17 2-1-6-2-9-4-14-3-8-3-10-8-17-2-2-3-2-6-3-2-1-7-6-11-5 0 2 1 2 4 4 2 3 4 6 5 9 6 9 10 9 14 22-2-1-2-1-3-2-4-6-8-10-13-15-1-2-3-3-4-5-4-6-4-11-11-13-9-1-18 2-24 9-5 6-10 11-13 19-2 9-4 19-4 28 1 10-1 20-5 28-4 8-16 43-18 46"/><path d="m190 687l1 1h-2c-2 0-18 3-25 4-3 0-2 1-3 3-1 5-3 6 1 11 0 2 2 4 2 5l-3 4c0 1 1 3 2 4 3 4 10 0 17 3h9c2 0 6 0 9 0 2-1 4-2 7-2 11-2 7-2 12-7 2-3 4-1 7-2 5-2 16-7 19-10l11-7c3-2 3-3 2-7-1-2-1-5-2-8-1-6-5-25-6-31-1-4-3-10-4-14-2-5-5-8-8-11-2-2-3-3-7-3-5 0-17 6-23 4-1 0-5-2-6-3-2-1-4-2-7-2-5-2-11-2-16-1-3 1-11 5-13 7-2 1-8 7-9 10 2 1 4 3 6 3 2-1 2-3 3-4 3-4 8-7 12-9 4-3 6-3 11-3 4 0 9 0 12 2-5 3-15-2-21 4 0 1 1 1 1 3 3 0 5 0 6 3 2 6-6 7-6 0 0-3 0-1-3-6-3 1-9 6-10 8 1 1 6 5 8 6 4 2 8 3 12 3 6 0 8-1 12-3 3-2 3 0 9 4-1 4-6 1-15 2-4 1-12 2-13 5-1 2 2 7 3 9 2 6 1 7 2 9 0 1 0 0 0 1 2-1 2-3 4-6 1-1 3-3 5-4 11-7 16-2 16-8 0-2 0-3 1-5 1-4 2-4-1-7 0 0-3-4-3-5-1-3-1-7-1-10l9-1 1 3-7-1-1 2 8 1c0 1 0 1-1 1-4 1-6-2-6 3 2 0 4-1 6 0v1c-2 2-4 0-4 2l1 1c2 0 4-1 6 1 7 5 24 2 20-7 0-3-3-6-5-8-2-1-8-1-11 1 1 2 2 7 3 7 1 1 2 1 2 3 0 5-9 3-6-2 2-2 1-5 0-8l-3 1c1-4 12-8 19-2 3 3 3 5 4 10 0 6-4 7 3 15 3 5 2 6-3 14-2 5 1 13 3 16 1 1 3 2 2 4-1 1-3 2-4 3-2 1-4 2-5 3l-19 12c-1 1-2 2-3 4-1 2-3 4-5 4-1-1-2-5-3-6-2-2-3-3-4-5-2-2-8-10-8-11 1-3 4-3 5 0 1 2 1 3 3 7 1 2 3 5 4 6 3 3 5 1 6-1 2-2 14-7 19-11 1-2 4-3 3-6-1-1-4 0-6-1-10-1-7-1-18 0-3 0-10 0-12 0-3 1-1 2-5 2-3 0-4 0-3 3"/><path d="m150 678c0-2 0-2 2-2 6 0 7 1 13 1 3 0 5 1 8 1 2 0 11 2 13 0-3-1-6-2-10-4-13-4-22-13-28-14 0 4-1 8-2 11-3 16-2 14-11 17-11 4-9 3-18 9-4 3-10 8-13 12-5 7 31 16 42 4 9-11-5-22 16-26l20-4c1 0 1-1 1-2-6 0-10 0-17-1-3 0-5-1-8-1-2 0-6 0-8-1"/><path d="m202 613c-3 1-11-2-18-3 0 2 1 2 4 3l16 7-1-6 7-1v-8l3 5c3-1 5-2 8-3 4-1 8 1 11 1-4-10-2-8-9-16-3-5-7-10-12-13l-8-4c-13-6-8 0-20-5-2-1-7-3-10-3 2 4 10 6 12 7 3 3 8 6 10 9 2 2 6 9 6 12 1 4 2 14 1 18"/><path d="m150 657c4 2 13 8 18 11 8 4 9 5 17 8 1 1 2 1 3 1-1-1-1-1-4-2-4-2-6-3-10-6-3-2-4-2-5-6 0-2-1-9 0-10 0 0 6 6 7 6 4 5 3 9 5 9 1-1 1-2 0-4-1-2-3-8-5-9-2-4-12-10-16-13-1 0-5-4-6-1-2 3-4 12-4 16"/><path d="m193 681c0-1 0-2 1-3 1 0 2-1 3-1 1-1 2-3 3-4l2 5h3c0-4-2-8 0-10l1-1c0 1 2 9 2 11h4c-1-6-1-3-1-13 2 0 2 0 2 2l2 10h4c0-4-1-7-1-11h1c1 4 2 8 3 12l4-1v-5c2 1 2 3 7 7 1-1 2-1 3-2-1-2-6-9-7-10-3-2-7-7-10-8-4 0-8 0-11 0l-7 10c-3 3-5 5-9 7-4 2-4 6 1 5"/><path d="m216 646c1 2 3 1 5 2 1 2 0 4 0 7 2 1 6 5 7 6 2 1 3 2 4 3 1 1 2 3 4 3 2-5 2-4 4-10 1-5 4-5-2-8-5-2-7-1-12-1-5-1-5-4-10-2"/><path d="m261 687v-4c-1-2-2-10-3-12-1-4-1-7-2-11-4-12-9-31-15-41-2-5-2-5-7-7-2-2-7-3-11-3 0 4 0 3 2 5 1 2 2 4 4 2 0-2-1 0-2-3 3 0 3 1 4 3 2 2 2 1 4 3 2 1 2 2 4 3 7 7 6 12 10 23 3 9 6 23 8 33 1 3 2 8 3 11v-1c0 0 0 0 0 0 1 0 1 0 1-1"/><path d="m190 565h-9-2c4 4 6 2 14 3 3 0 8 3 12 4 5 2 9 5 12 9 1 1 1 1 2 2 2 3 0 3 5 3 0-2-4-7-5-8-4-4-18-10-23-12-2 0-5-1-6-1"/><path d="m148 720c2 0 3 0 6 0 3-1 3-1 3-4 1-3 1-4 0-6-1-2-1-4-3-5-1 4 3 3-5 9-1 0-1 0-2 1 0 2 0 3 1 5"/><path d="m215 621l3-1c0-2-1-3 0-5 1-2 1-1 1-4-1 0-3 1-4 1-1 1-2 1-2 2 0 3 2 5 2 7"/><path d="m240 684c0 0-1-1-1-1-1-3 0-2 2-3 0-1-1-1-1-1-5-2-5 8 0 6v-1"/><path d="m314 702v1c2 0 7-5 13-8 2-2 10-7 13-8 5-3 13-1 14-7 1-3 1-6 2-9 0-5 3-12 4-17 1-3 1-6 2-9 4-10 6-13 12-20 3-3 3-2 6-4 6-4 5-3 1-13 6-1 11-1 17 1 2 0 14 2 16 2 0-6-1-9-3-14-3-8-3-10-9-17-1-2-2-2-5-3-3-1-7-6-11-5 0 2 1 2 3 4 3 3 4 6 6 9 5 9 10 9 13 22-1-1-1-1-2-2-4-6-9-10-13-15-2-2-3-3-4-5-4-6-5-11-12-13-8-1-18 2-23 9-5 6-10 11-13 19-3 9-5 19-4 28 1 10-1 20-5 28-5 8-17 43-18 46"/><path d="m404 687l1 1h-2c-3 0-19 3-25 4-3 0-3 1-3 3-1 5-3 6 0 11 1 2 2 4 3 5l-3 4c0 1 1 3 2 4 3 4 9 0 16 3h10c2 0 6 0 8 0 3-1 5-2 8-2 10-2 7-2 12-7 2-3 4-1 7-2 4-2 15-7 19-10l11-7c3-2 2-3 2-7-1-2-1-5-2-8-1-6-5-25-6-31-2-4-3-10-5-14-2-5-4-8-7-11-2-2-3-3-7-3-5 0-18 6-23 4-2 0-5-2-6-3-3-1-4-2-7-2-5-2-11-2-17-1-2 1-10 5-12 7-2 1-9 7-9 10 1 1 4 3 6 3 1-1 2-3 3-4 3-4 7-7 12-9 3-3 5-3 11-3 4 0 9 0 11 2-5 3-14-2-21 4 1 1 2 1 2 3 3 0 5 0 6 3 1 6-7 7-7 0 0-3 1-1-2-6-3 1-9 6-10 8 0 1 5 5 8 6 4 2 7 3 12 3 5 0 8-1 12-3 3-2 3 0 9 4-2 4-7 1-15 2-4 1-12 2-13 5-1 2 1 7 2 9 3 6 2 7 2 9 1 1 1 0 1 1 1-1 1-3 4-6 1-1 3-3 5-4 11-7 15-2 16-8 0-2 0-3 0-5 1-4 3-4 0-7-1 0-4-4-4-5 0-3-1-7-1-10l10-1 1 3-7-1-1 2 7 1c0 1 1 1-1 1-4 1-5-2-6 3 3 0 5-1 7 0v1c-2 2-4 0-5 2l2 1c1 0 4-1 5 1 7 5 25 2 21-7-1-3-3-6-5-8-2-1-8-1-11 1 0 2 2 7 3 7 1 1 2 1 2 3 0 5-9 3-6-2 2-2 0-5 0-8l-3 1c1-4 11-8 18-2 3 3 4 5 4 10 0 6-3 7 4 15 3 5 1 6-3 14-2 5 0 13 3 16 1 1 2 2 2 4-1 1-3 2-5 3-1 1-3 2-5 3l-18 12c-2 1-2 2-4 4-1 2-2 4-4 4-1-1-3-5-4-6-1-2-2-3-4-5-1-2-7-10-8-11 2-3 5-3 6 0 1 2 1 3 3 7 1 2 2 5 4 6 2 3 4 1 6-1 2-2 13-7 18-11 2-2 5-3 4-6-2-1-4 0-6-1-10-1-8-1-18 0-3 0-10 0-13 0-2 1-1 2-5 2-2 0-4 0-2 3"/><path d="m364 678c-1-2 0-2 2-2 6 0 7 1 13 1 2 0 5 1 8 1 2 0 11 2 13 0-3-1-7-2-10-4-13-4-23-13-28-14-1 4-2 8-2 11-4 16-2 14-11 17-11 4-9 3-19 9-3 3-10 8-12 12-5 7 31 16 42 4 9-11-6-22 15-26l21-4c1 0 1-1 1-2-7 0-11 0-17-1-3 0-5-1-8-1-3 0-6 0-8-1"/><path d="m416 613c-4 1-11-2-18-3 0 2 0 2 4 3l15 7v-6l7-1v-8l3 5c2-1 5-2 8-3 4-1 7 1 11 1-4-10-2-8-9-16-4-5-8-10-12-13l-9-4c-13-6-8 0-19-5-3-1-8-3-10-3 2 4 10 6 11 7 3 3 9 6 11 9 1 2 5 9 6 12 1 4 1 14 1 18"/><path d="m363 657c5 2 13 8 19 11 8 4 9 5 17 8 1 1 2 1 2 1 0-1-1-1-3-2-5-2-6-3-11-6-2-2-3-2-4-6 0-2-1-9-1-10 1 0 7 6 8 6 4 5 3 9 5 9 1-1 0-2 0-4-1-2-4-8-5-9-2-4-13-10-17-13 0 0-4-4-6-1-2 3-3 12-4 16"/><path d="m407 681c0-1 0-2 1-3 0 0 2-1 2-1 2-1 3-3 4-4l1 5h3c1-4-2-8 0-10l1-1c1 1 3 9 3 11h4c-1-6-2-3-1-13 2 0 1 0 2 2l2 10h4c0-4-2-7-2-11h2c1 4 2 8 2 12l5-1v-5c2 1 1 3 6 7 2-1 2-1 3-2 0-2-6-9-7-10-2-2-6-7-9-8-4 0-8 0-11 0l-8 10c-2 3-4 5-9 7-4 2-3 6 2 5"/><path d="m429 646c2 2 4 1 5 2 1 2 1 4 1 7 1 1 5 5 7 6 1 1 2 2 4 3 1 1 2 3 4 3 2-5 2-4 3-10 2-5 4-5-2-8-5-2-6-1-11-1-5-1-5-4-11-2"/><path d="m474 687v-4c0-2-1-10-2-12-1-4-2-7-3-11-3-12-8-31-14-41-3-5-3-5-7-7-3-2-8-3-11-3 0 4 0 3 2 5 1 2 2 4 4 2-1-2-1 0-2-3 2 0 3 1 4 3 2 2 1 1 4 3 1 1 2 2 3 3 7 7 7 12 11 23 3 9 6 23 8 33 1 3 2 8 3 11v-1c0 0 0 0 0 0s0 0 0-1"/><path d="m404 565h-9-3c5 4 7 2 14 3 4 0 9 3 13 4 5 2 8 5 12 9 0 1 1 1 1 2 3 3 1 3 6 3-1-2-5-7-6-8-3-4-17-10-23-12-1 0-4-1-5-1"/><path d="m361 720c3 0 4 0 7 0 3-1 2-1 3-4 0-3 1-4 0-6-1-2-2-4-3-5-2 4 2 3-6 9 0 0-1 0-1 1 0 2 0 3 0 5"/><path d="m429 621l3-1c0-2-1-3 0-5 1-2 1-1 0-4-1 0-2 1-3 1-1 1-2 1-2 2-1 3 1 5 2 7"/><path d="m453 684c0 0 0-1 0-1-1-3 0-2 1-3 0-1 0-1-1-1-5-2-4 8 0 6v-1"/><path d="m526 702v1c2 0 7-5 13-8 2-2 10-7 13-8 5-3 13-1 14-7 1-3 1-6 2-9 0-5 3-12 4-17 0-3 1-6 2-9 4-10 5-13 12-20 3-3 3-2 6-4 6-4 5-3 1-13 5-1 11-1 16 1 3 0 15 2 17 2 0-6-1-9-3-14-3-8-4-10-9-17-1-2-2-2-5-3-3-1-7-6-11-5 0 2 1 2 3 4 2 3 4 6 6 9 5 9 10 9 13 22-1-1-1-1-2-2-4-6-9-10-13-15-2-2-3-3-4-5-4-6-5-11-12-13-9-1-18 2-23 9-5 6-10 11-13 19-3 9-5 19-4 28 1 10-1 20-5 28-5 8-17 43-18 46"/><path d="m616 687l1 1h-2c-3 0-19 3-25 4-3 0-3 1-3 3-1 5-3 6 0 11 1 2 2 4 3 5l-4 4c1 1 2 3 3 4 3 4 9 0 16 3h10c1 0 6 0 8 0 3-1 5-2 8-2 10-2 6-2 12-7 2-3 3-1 7-2 4-2 15-7 19-10l11-7c2-2 2-3 1-7 0-2-1-5-1-8-1-6-5-25-7-31-1-4-2-10-4-14-2-5-4-8-7-11-2-2-3-3-7-3-5 0-18 6-23 4-2 0-5-2-6-3-3-1-4-2-7-2-5-2-11-2-17-1-2 1-10 5-12 7-3 1-9 7-9 10 1 1 3 3 6 3 1-1 2-3 3-4 3-4 7-7 11-9 4-3 6-3 12-3 4 0 9 0 11 2-5 3-14-2-21 4 1 1 2 1 2 3 3 0 5 0 6 3 1 6-7 7-7 0 0-3 1-1-3-6-2 1-8 6-9 8 0 1 5 5 8 6 3 2 7 3 12 3 5 0 8-1 12-3 3-2 3 0 9 4-2 4-7 1-15 2-4 1-12 2-13 5-1 2 1 7 2 9 3 6 2 7 2 9 1 1 0 0 1 1 1-1 1-3 4-6 1-1 3-3 5-4 11-7 15-2 16-8 0-2 0-3 0-5 1-4 3-4 0-7-1 0-4-4-4-5 0-3-1-7-1-10l10-1v3l-7-1v2l7 1c0 1 0 1-1 1-4 1-5-2-6 3 2 0 4-1 7 0v1c-2 2-4 0-5 2l2 1c1 0 4-1 5 1 7 5 24 2 21-7-1-3-3-6-5-8-2-1-8-1-11 1 0 2 2 7 3 7 1 1 2 1 2 3 0 5-10 3-6-2 2-2 0-5 0-8l-3 1c1-4 11-8 18-2 3 3 4 5 4 10 0 6-3 7 3 15 4 5 2 6-2 14-3 5 0 13 2 16 2 1 3 2 3 4-1 1-3 2-5 3-1 1-3 2-5 3l-18 12c-2 1-3 2-4 4-1 2-2 4-4 4-1-1-3-5-4-6-1-2-3-3-4-5-1-2-7-10-8-11 2-3 5-3 6 0 1 2 1 3 3 7 1 2 2 5 4 6 2 3 4 1 6-1 2-2 13-7 18-11 2-2 5-3 4-6-2-1-4 0-6-1-10-1-8-1-18 0-3 0-10 0-13 0-2 1-1 2-5 2-3 0-4 0-2 3"/><path d="m575 678c0-2 1-2 3-2 6 0 7 1 12 1 3 0 6 1 9 1 2 0 11 2 13 0-4-1-7-2-10-4-13-4-23-13-28-14-1 4-2 8-3 11-3 16-1 14-10 17-11 4-9 3-19 9-4 3-10 8-12 12-5 7 31 16 42 4 9-11-6-22 15-26l21-4c1 0 1-1 1-2-7 0-11 0-17-1-3 0-6-1-8-1-3 0-6 0-9-1"/><path d="m628 613c-4 1-11-2-18-3 0 2 0 2 4 3l15 7v-6l7-1v-8l3 5c2-1 5-2 8-3 3-1 7 1 11 1-4-10-3-8-9-16-4-5-8-10-12-13l-9-4c-13-6-8 0-20-5-2-1-7-3-9-3 1 4 10 6 11 7 3 3 9 6 11 9 1 2 5 9 6 12 1 4 1 14 1 18"/><path d="m575 657c5 2 13 8 19 11 8 4 8 5 17 8 1 1 1 1 2 1 0-1-1-1-3-2-5-2-6-3-11-6-3-2-4-2-4-6 0-2-1-9-1-10 1 0 7 6 8 6 4 5 3 9 5 9 1-1 0-2 0-4-1-2-4-8-5-9-2-4-13-10-17-13-1 0-4-4-6-1-2 3-3 12-4 16"/><path d="m619 681c0-1 0-2 1-3 0 0 2-1 2-1 2-1 3-3 4-4l1 5h3c1-4-2-8 0-10l1-1c1 1 3 9 3 11h4c-1-6-2-3-2-13 2 0 2 0 3 2l2 10h3c0-4-1-7-1-11h2c1 4 2 8 2 12l4-1 1-5c2 1 1 3 6 7 1-1 2-1 3-2 0-2-6-9-7-10-2-2-6-7-9-8-4 0-8 0-12 0l-7 10c-2 3-5 5-9 7-4 2-3 6 2 5"/><path d="m641 646c2 2 3 1 5 2 1 2 1 4 1 7 1 1 5 5 7 6 1 1 2 2 3 3 2 1 3 3 5 3 2-5 1-4 3-10 2-5 4-5-2-8-5-2-6-1-12-1-4-1-4-4-10-2"/><path d="m686 687v-4c0-2-2-10-2-12-1-4-2-7-3-11-3-12-8-31-14-41-3-5-3-5-7-7-3-2-8-3-11-3 0 4 0 3 1 5 1 2 3 4 5 2-1-2-1 0-2-3 2 0 3 1 4 3 2 2 1 1 4 3 1 1 2 2 3 3 7 7 7 12 11 23 3 9 6 23 8 33 0 3 2 8 2 11l1-1c0 0 0 0 0 0s0 0 0-1"/><path d="m615 565h-8-3c5 4 7 2 14 3 4 0 9 3 13 4 5 2 8 5 11 9 1 1 1 1 2 2 3 3 1 3 6 3-1-2-5-7-6-8-3-4-18-10-23-12-1 0-4-1-6-1"/><path d="m573 720c2 0 4 0 7 0 2-1 2-1 3-4 0-3 1-4 0-6-1-2-2-4-3-5-2 4 2 3-6 9-1 0-1 0-1 1 0 2 0 3 0 5"/><path d="m641 621l3-1c0-2-1-3 0-5 1-2 1-1 0-4-1 0-2 1-3 1-1 1-2 1-2 2-1 3 1 5 2 7"/><path d="m665 684c0 0 0-1 0-1-1-3 0-2 1-3 0-1 0-1-1-1-5-2-4 8 0 6v-1"/><g fill="#2b2a29" fill-rule="nonzero"><path d="m134 742h-15c-4 0-6 2-6 5-1 3 1 6 5 10 3 2 2 3-1 3h-14v7h22c4 0 6-2 6-5 0-3-2-7-6-10-2-2-2-3 1-2h8v-8m19 0v8h-8v17h-8v-17h-8v-8h24m-2 25v-25h17c2 0 4 1 5 2 1 0 2 2 3 3 0 2 0 4 0 5 0 2-1 3-2 3-1 1-3 2-5 2l2 3h14v7h-16l-8-8v8h-10m10-19v5h6c0 0 1 0 1 0 1-1 1-1 1-2 0-1 0-2-1-2 0-1-1-1-1-1h-6m18 19v-17h-6v-8h28v8h-14v2h9v5h-9v3h16v7h-24m46-25h-16c-3 0-5 2-6 5 0 3 1 6 5 10 3 2 2 3-1 3h-14v7h22c4 0 6-2 6-5 0-3-2-7-6-10-2-2-1-3 2-2h8v-8m20 0h-16c-3 0-5 2-6 5 0 3 1 6 5 10 3 2 2 3-1 3h-14v7h22c4 0 6-2 6-5 0-3-2-7-6-10-2-2-1-3 2-2h8v-8m-2 25v-17h-5v-8h27v8h-14v2h9v5h-9v3h16v7h-24m24 0v-17h-5v-8h20c2 0 4 0 5 1 2 0 3 1 4 2 1 1 2 2 3 4 1 1 1 3 1 6 0 2 0 4-1 6-1 1-2 3-3 4-1 1-2 1-4 2-1 0-3 1-5 0h-15m8-19v13h5c1 0 2 0 3-1 1 0 1-1 2-1 0-1 0-2 0-4 0-2 0-3 0-4-1-1-1-2-2-2-1 0-2-1-3-1h-5"/><path d="m363 767v-18h-6v-8h14l6 11 5-11h9v26h-9v-11l-5 11h-1l-5-11v11h-8m42-20l-4 10h7l-3-10m-16 2v-8h22l8 26h-9l-2-5h-7l-2 5h-9l6-18h-7m30 18v-18h-5v-8h20c2 0 4 0 5 1 2 1 3 1 4 2 2 1 2 2 3 4 1 1 1 3 1 6 0 2 0 4-1 6-1 2-1 3-3 4-1 1-2 1-3 2-2 0-4 1-6 1h-15m9-20v13h4c2 0 2 0 3 0 1-1 1-1 2-2 0-1 0-2 1-4-1-2-1-3-1-4-1-1-1-1-2-2-1 0-1-1-3-1h-4"/><path d="m562 754c0 1 0 2 1 3 0 1 1 1 2 1 0 1 1 1 3 1 1 0 3 0 3 0 1-1 2-1 2-2l5 6c-1 1-2 2-4 3-1 0-3 1-6 1-3 0-5-1-6-1-1-1-3-2-4-3-1-1-2-2-3-4-1-1-1-3-1-5 0-2 0-4 1-6 1-1 2-3 3-4 1-1 3-2 4-2 1-1 3-1 6-1 3 0 5 0 6 1 2 0 3 1 4 2l-5 6c0-1-1-1-2-2 0 0-2 0-3 0-2 0-3 0-3 1-1 0-2 1-2 1-1 1-1 2-1 4m30-7l-3 10h7l-4-10m-15 2v-8h22l8 26h-10l-1-5h-8l-1 5h-9l5-18h-6m30 18v-18h-6v-8h14v18h14v8h-22m23 0v-18h-6v-8h14l5 11 6-11h8v26h-8v-11l-5 11h-1l-5-11v11h-8"/></g></svg>